<?xml version="1.0" encoding="UTF-8" standalone="no"?>
<!-- Generator: Gravit.io -->
<svg xmlns="http://www.w3.org/2000/svg" xmlns:xlink="http://www.w3.org/1999/xlink" style="isolation:isolate" viewBox="0 0 100 100" width="100pt" height="100pt"><defs><clipPath id="_clipPath_byzvo5rzkxOg5LM2liD0GtR3kZOxbH1C"><rect width="100" height="100"/></clipPath></defs><g clip-path="url(#_clipPath_byzvo5rzkxOg5LM2liD0GtR3kZOxbH1C)"><path d="M 27.5 5 L 72.5 5 C 84.918 5 95 15.082 95 27.5 L 95 72.5 C 95 84.918 84.918 95 72.5 95 L 27.5 95 C 15.082 95 5 84.918 5 72.5 L 5 27.5 C 5 15.082 15.082 5 27.5 5 Z" style="stroke:none;fill:#AA0000;stroke-miterlimit:10;"/><path d=" M 59.5 40.735 L 59.5 40.735 L 59.5 40.735 Q 61.551 40.735 63.089 41.292 L 63.089 41.292 L 63.089 41.292 Q 64.627 41.848 65.608 42.822 L 65.608 42.822 L 65.608 42.822 Q 66.59 43.796 67.198 45.298 L 67.198 45.298 L 67.198 45.298 Q 67.806 46.799 68.047 48.521 L 68.047 48.521 L 68.047 48.521 Q 68.289 50.242 68.289 52.454 L 68.289 52.454 L 68.289 63.586 L 71.219 63.586 L 71.219 68.274 L 57.156 68.274 L 57.156 63.586 L 60.086 63.586 L 60.086 51.868 L 60.086 51.868 Q 60.086 49.553 59.668 48.264 L 59.668 48.264 L 59.668 48.264 Q 59.251 46.975 58.467 46.492 L 58.467 46.492 L 58.467 46.492 Q 57.684 46.008 56.336 46.008 L 56.336 46.008 L 56.336 46.008 Q 55.076 46.008 53.743 47.107 L 53.743 47.107 L 53.743 47.107 Q 52.41 48.206 51.224 50.183 L 51.224 50.183 L 51.224 50.183 Q 51.297 51.238 51.297 52.454 L 51.297 52.454 L 51.297 63.586 L 54.227 63.586 L 54.227 68.274 L 40.164 68.274 L 40.164 63.586 L 43.094 63.586 L 43.094 51.868 L 43.094 51.868 Q 43.094 49.553 42.676 48.264 L 42.676 48.264 L 42.676 48.264 Q 42.259 46.975 41.475 46.492 L 41.475 46.492 L 41.475 46.492 Q 40.691 46.008 39.344 46.008 L 39.344 46.008 L 39.344 46.008 Q 38.113 46.008 36.824 47.048 L 36.824 47.048 L 36.824 47.048 Q 35.535 48.088 34.378 49.949 L 34.378 49.949 L 34.305 63.586 L 37.234 63.586 L 37.234 68.274 L 23.172 68.274 L 23.172 63.586 L 26.102 63.586 L 26.102 46.008 L 23.172 46.008 L 23.172 41.321 L 32.269 41.321 L 34.319 45.291 L 34.319 45.291 Q 34.861 44.309 35.572 43.525 L 35.572 43.525 L 35.572 43.525 Q 36.282 42.742 37.271 42.09 L 37.271 42.09 L 37.271 42.09 Q 38.26 41.438 39.593 41.086 L 39.593 41.086 L 39.593 41.086 Q 40.926 40.735 42.508 40.735 L 42.508 40.735 L 42.508 40.735 Q 44.28 40.735 45.672 41.138 L 45.672 41.138 L 45.672 41.138 Q 47.063 41.541 48.038 42.324 L 48.038 42.324 L 48.038 42.324 Q 49.012 43.108 49.656 44.185 L 49.656 44.185 L 49.656 44.185 Q 50.301 45.261 50.682 46.682 L 50.682 46.682 L 50.682 46.682 Q 51.048 45.73 51.539 44.895 L 51.539 44.895 L 51.539 44.895 Q 52.029 44.06 52.791 43.276 L 52.791 43.276 L 52.791 43.276 Q 53.553 42.493 54.483 41.943 L 54.483 41.943 L 54.483 41.943 Q 55.413 41.394 56.702 41.064 L 56.702 41.064 L 56.702 41.064 Q 57.991 40.735 59.5 40.735 Z " fill="rgb(255,255,255)"/><path d=" M 59.5 32.742 L 59.5 32.742 L 59.5 32.742 Q 61.551 32.742 63.089 33.299 L 63.089 33.299 L 63.089 33.299 Q 64.627 33.855 65.608 34.83 L 65.608 34.83 L 65.608 34.83 Q 66.59 35.804 67.198 37.305 L 67.198 37.305 L 67.198 37.305 Q 67.806 38.807 68.047 40.528 L 68.047 40.528 L 68.047 40.528 Q 68.289 42.249 68.289 44.461 L 68.289 44.461 L 68.289 55.594 L 71.219 55.594 L 71.219 60.281 L 57.156 60.281 L 57.156 55.594 L 60.086 55.594 L 60.086 43.875 L 60.086 43.875 Q 60.086 41.561 59.668 40.271 L 59.668 40.271 L 59.668 40.271 Q 59.251 38.982 58.467 38.499 L 58.467 38.499 L 58.467 38.499 Q 57.684 38.016 56.336 38.016 L 56.336 38.016 L 56.336 38.016 Q 55.076 38.016 53.743 39.114 L 53.743 39.114 L 53.743 39.114 Q 52.41 40.213 51.224 42.19 L 51.224 42.19 L 51.224 42.19 Q 51.297 43.245 51.297 44.461 L 51.297 44.461 L 51.297 55.594 L 54.227 55.594 L 54.227 60.281 L 40.164 60.281 L 40.164 55.594 L 43.094 55.594 L 43.094 43.875 L 43.094 43.875 Q 43.094 41.561 42.676 40.271 L 42.676 40.271 L 42.676 40.271 Q 42.259 38.982 41.475 38.499 L 41.475 38.499 L 41.475 38.499 Q 40.691 38.016 39.344 38.016 L 39.344 38.016 L 39.344 38.016 Q 38.113 38.016 36.824 39.056 L 36.824 39.056 L 36.824 39.056 Q 35.535 40.096 34.378 41.956 L 34.378 41.956 L 34.305 55.594 L 37.234 55.594 L 37.234 60.281 L 23.172 60.281 L 23.172 55.594 L 26.102 55.594 L 26.102 38.016 L 23.172 38.016 L 23.172 33.328 L 32.269 33.328 L 34.319 37.298 L 34.319 37.298 Q 34.861 36.316 35.572 35.533 L 35.572 35.533 L 35.572 35.533 Q 36.282 34.749 37.271 34.097 L 37.271 34.097 L 37.271 34.097 Q 38.26 33.445 39.593 33.094 L 39.593 33.094 L 39.593 33.094 Q 40.926 32.742 42.508 32.742 L 42.508 32.742 L 42.508 32.742 Q 44.28 32.742 45.672 33.145 L 45.672 33.145 L 45.672 33.145 Q 47.063 33.548 48.038 34.332 L 48.038 34.332 L 48.038 34.332 Q 49.012 35.115 49.656 36.192 L 49.656 36.192 L 49.656 36.192 Q 50.301 37.269 50.682 38.689 L 50.682 38.689 L 50.682 38.689 Q 51.048 37.737 51.539 36.902 L 51.539 36.902 L 51.539 36.902 Q 52.029 36.067 52.791 35.284 L 52.791 35.284 L 52.791 35.284 Q 53.553 34.5 54.483 33.951 L 54.483 33.951 L 54.483 33.951 Q 55.413 33.401 56.702 33.072 L 56.702 33.072 L 56.702 33.072 Q 57.991 32.742 59.5 32.742 Z " fill="rgb(255,255,255)"/><path d=" M 13.542 67.197 L 13.542 67.197 L 13.542 67.197 Q 12.172 65.828 12.172 63.879 L 12.172 63.879 L 12.172 63.879 Q 12.172 61.931 13.542 60.562 L 13.542 60.562 L 13.542 60.562 Q 14.911 59.192 16.859 59.192 L 16.859 59.192 L 16.859 59.192 Q 18.808 59.192 20.177 60.562 L 20.177 60.562 L 20.177 60.562 Q 21.547 61.931 21.547 63.879 L 21.547 63.879 L 21.547 63.879 Q 21.547 65.828 20.177 67.197 L 20.177 67.197 L 20.177 67.197 Q 18.808 68.567 16.859 68.567 L 16.859 68.567 L 16.859 68.567 Q 14.911 68.567 13.542 67.197 Z " fill="rgb(255,255,255)"/><path d=" M 72.672 36.633 L 72.672 31.946 L 83.805 31.946 L 83.805 63.586 L 86.734 63.586 L 86.734 68.274 L 72.672 68.274 L 72.672 63.586 L 75.602 63.586 L 75.602 36.633 L 72.672 36.633 Z " fill="rgb(255,255,255)"/></g></svg>