<?xml version="1.0" encoding="UTF-8" standalone="no"?>
<!-- Generator: Gravit.io -->
<svg xmlns="http://www.w3.org/2000/svg" xmlns:xlink="http://www.w3.org/1999/xlink" style="isolation:isolate" viewBox="986.095 269.081 14.359 26.108" width="14.359pt" height="26.108pt"><defs><clipPath id="_clipPath_STJa1ZScenGYZpXvd6XHPGYmp2AQWG3g"><rect x="986.095" y="269.081" width="14.359" height="26.108"/></clipPath></defs><g clip-path="url(#_clipPath_STJa1ZScenGYZpXvd6XHPGYmp2AQWG3g)"><path d=" M 992.792 269.081 L 992.792 289.542 C 992.366 289.315 991.657 289.173 991.004 289.173 C 988.677 289.173 986.095 291.074 986.095 293.089 C 986.095 294.48 987.428 295.189 988.734 295.189 C 991.43 295.189 993.927 293.316 993.927 290.365 L 993.927 276.119 C 996.878 276.772 999.12 279.382 999.12 282.674 C 999.12 284.945 997.957 287.328 997.332 288.634 L 998.07 288.634 C 999.432 286.449 1000.454 284.093 1000.454 281.709 C 1000.454 279.042 998.524 276.828 996.793 275.324 C 995.062 273.82 993.501 271.805 993.501 269.081 L 992.792 269.081 Z " fill="rgb(255,255,255)"/></g></svg>